# xmcd
#
# Track frame offsets:
#  150
#  12811
#  30017
#  56794
#  73038
#  108045
#  134442
#  147920
#  161500
#  190620
#  214213
#
# Disc length: 3150 seconds
#
# Revision: 0
# Processed by: cddbd v1.5.1PL0 Copyright (c) Steve Scherf et al.
# Submitted via: Collectorz.com Music Collector 6.9
#
DISCID=8f0c4c0b
DTITLE=Muddy Waters - Hoochie Coochie Man
DYEAR=2002
DGENRE=Blues
TTITLE0=Baby Please Don't Go
TTITLE1=Blow Wind Blow
TTITLE2=Caldonia
TTITLE3=Corrina,Corrina
TTITLE4=Floyd's Blues
TTITLE5=Gargage Man
TTITLE6=Got My Mojo Working
TTITLE7=Hoochie Coochie Man
TTITLE8=Howlin' Wolf
TTITLE9=Screamin' and Cryin'
TTITLE10=Soon Forgotten
EXTD=
EXTT0=
EXTT1=
EXTT2=
EXTT3=
EXTT4=
EXTT5=
EXTT6=
EXTT7=
EXTT8=
EXTT9=
EXTT10=
PLAYORDER=
